<svg width="686" height="146" viewBox="0 0 686 146" fill="none" xmlns="http://www.w3.org/2000/svg">
<path d="M67.5838 1.91992H69.6958L137.664 143.232H112.896L100.8 115.584H36.0958L23.9998 143.232H-0.000222802L67.5838 1.91992ZM68.5438 42.8159L60.0958 62.0159L44.7358 96.1919H92.3518L77.1838 62.2079L68.9278 42.8159H68.5438ZM213.136 145.152C200.848 145.152 190.992 142.656 183.568 137.664C176.272 132.672 170.96 125.504 167.632 116.16C164.432 106.816 162.832 95.7439 162.832 82.9439V2.11193H184.336V83.3279C184.336 98.3039 186.576 109.056 191.056 115.584C195.664 121.984 203.024 125.184 213.136 125.184C223.248 125.184 230.544 122.048 235.024 115.776C239.504 109.504 241.744 98.6879 241.744 83.3279V2.11193H263.44V82.9439C263.44 102.656 259.344 117.952 251.152 128.832C242.96 139.712 230.288 145.152 213.136 145.152ZM309.76 143.232V2.11193H341.824C348.992 2.11193 355.904 2.81593 362.56 4.22393C369.344 5.63192 375.36 7.99992 380.608 11.3279C385.856 14.6559 390.016 19.0719 393.088 24.5759C396.16 30.0799 397.696 36.8639 397.696 44.9279C397.696 54.2719 395.52 62.3999 391.168 69.3119C386.816 76.2239 380.224 81.5359 371.392 85.2479L404.992 143.232H380.224L351.808 89.8559C349.632 89.9839 346.944 90.1119 343.744 90.2399C340.672 90.2399 338.112 90.2399 336.064 90.2399H330.688V143.232H309.76ZM330.688 72.7679H344.32C351.36 72.7679 356.992 71.8719 361.216 70.0799C365.568 68.2879 368.896 66.0479 371.2 63.3599C373.504 60.5439 375.04 57.5359 375.808 54.3359C376.704 51.0079 377.152 47.9359 377.152 45.1199C377.152 38.8479 375.68 33.9199 372.736 30.3359C369.92 26.6239 365.952 23.9999 360.832 22.4639C355.84 20.7999 350.08 19.9679 343.552 19.9679H330.688V72.7679ZM478.596 145.152C473.22 145.152 467.908 144.512 462.66 143.232C457.412 141.824 452.74 140.16 448.644 138.24C444.548 136.192 441.476 134.144 439.428 132.096L449.604 113.856C451.012 115.008 453.188 116.544 456.132 118.464C459.204 120.256 462.724 121.856 466.692 123.264C470.66 124.672 474.628 125.376 478.596 125.376C485.124 125.376 490.564 123.84 494.916 120.768C499.396 117.696 501.636 113.216 501.636 107.328C501.636 102.464 500.356 98.4319 497.796 95.2319C495.236 92.0319 491.844 89.2159 487.62 86.7839C483.524 84.3519 479.044 82.0479 474.18 79.8719C469.444 77.5679 464.9 75.0079 460.548 72.1919C455.556 68.8639 451.204 64.4479 447.492 58.9439C443.78 53.4399 441.924 46.3359 441.924 37.6319C441.924 29.0559 443.844 22.0159 447.684 16.5119C451.652 11.0079 456.836 6.91193 463.236 4.22393C469.764 1.40792 476.868 -7.62939e-05 484.548 -7.62939e-05C490.692 -7.62939e-05 495.94 0.639923 500.292 1.91992C504.644 3.19993 508.292 4.73593 511.236 6.52793C514.18 8.31993 516.484 9.91993 518.148 11.3279L507.972 28.7999C505.796 26.4959 502.532 24.3839 498.18 22.4639C493.828 20.4159 488.964 19.3919 483.588 19.3919C477.316 19.3919 472.324 20.8639 468.612 23.8079C464.9 26.6239 463.044 30.8479 463.044 36.4799C463.044 41.4719 464.708 45.7599 468.036 49.3439C471.364 52.7999 475.588 55.9999 480.708 58.9439C485.956 61.7599 491.332 64.6399 496.836 67.5839C502.34 70.5279 507.204 73.9839 511.428 77.9519C514.884 81.0239 517.828 84.8639 520.26 89.4719C522.692 94.0799 523.908 99.2639 523.908 105.024C523.908 113.728 521.86 121.088 517.764 127.104C513.796 133.12 508.42 137.664 501.636 140.736C494.852 143.68 487.172 145.152 478.596 145.152ZM615.009 1.91992H617.121L685.089 143.232H660.321L648.225 115.584H583.521L571.425 143.232H547.425L615.009 1.91992ZM615.969 42.8159L607.521 62.0159L592.161 96.1919H639.777L624.609 62.2079L616.353 42.8159H615.969Z" fill="#FEAA49"/>
</svg>
